%TF.GenerationSoftware,KiCad,Pcbnew,10.0.6*%
%TF.CreationDate,2026-10-02T13:04:59-07:00*%
%TF.ProjectId,keypad_synth_revA,6b657970-6164-45f7-9379-6e74685f7265,rev?*%
%TF.SameCoordinates,Original*%
%TF.FileFunction,Copper,L2,Bot*%
%TF.FilePolarity,Positive*%
%FSLAX46Y46*%
G04 Gerber Fmt 4.6, Leading zero omitted, Abs format (unit mm)*
G04 Created by KiCad (PCBNEW 10.0.6) date 2026-10-02 13:04:59*
%MOMM*%
%LPD*%
G01*
G04 APERTURE LIST*
%TA.AperFunction,SMDPad,CuDef*%
%ADD10R,4.500000X1.600000*%
%TD*%
%TA.AperFunction,ComponentPad*%
%ADD11R,1.900000X3.200000*%
%TD*%
%TA.AperFunction,ComponentPad*%
%ADD12O,1.900000X3.200000*%
%TD*%
%TA.AperFunction,ComponentPad*%
%ADD13R,3.200000X1.900000*%
%TD*%
%TA.AperFunction,ComponentPad*%
%ADD14O,3.200000X1.900000*%
%TD*%
%TA.AperFunction,SMDPad,CuDef*%
%ADD15R,1.600000X4.500000*%
%TD*%
%TA.AperFunction,Conductor*%
%ADD16C,0.750000*%
%TD*%
%TA.AperFunction,Conductor*%
%ADD17C,1.000000*%
%TD*%
G04 APERTURE END LIST*
D10*
%TO.P,U5,1,A*%
%TO.N,/POT_HI*%
X193200000Y-135540000D03*
%TO.P,U5,2,W*%
%TO.N,/POT_WIPER*%
X193200000Y-133000000D03*
%TO.P,U5,3,B*%
%TO.N,/GND*%
X193200000Y-130460000D03*
%TD*%
D11*
%TO.P,U2,1,LRC*%
%TO.N,/I2S_LRC*%
X118740000Y-141500000D03*
D12*
%TO.P,U2,2,BCLK*%
%TO.N,/I2S_BCLK*%
X116200000Y-141500000D03*
%TO.P,U2,3,DIN*%
%TO.N,/I2S_DIN*%
X113660000Y-141500000D03*
%TO.P,U2,4,GAIN*%
%TO.N,unconnected-(U2-GAIN-Pad4)*%
X111120000Y-141500000D03*
%TO.P,U2,5,SD*%
%TO.N,unconnected-(U2-SD-Pad5)*%
X108580000Y-141500000D03*
%TO.P,U2,6,GND*%
%TO.N,/GND*%
X106040000Y-141500000D03*
%TO.P,U2,7,VIN*%
%TO.N,/+5V*%
X103500000Y-141500000D03*
%TD*%
D11*
%TO.P,U1,1,TX*%
%TO.N,/I2S_DIN*%
X107000000Y-125240000D03*
D12*
%TO.P,U1,2,RX*%
%TO.N,/I2S_BCLK*%
X109540000Y-125240000D03*
%TO.P,U1,3,IO1*%
%TO.N,/I2S_LRC*%
X112080000Y-125240000D03*
%TO.P,U1,4,IO2*%
%TO.N,/KEY_R1*%
X114620000Y-125240000D03*
%TO.P,U1,5,IO3*%
%TO.N,/KEY_R2*%
X117160000Y-125240000D03*
%TO.P,U1,6,IO4*%
%TO.N,/KEY_R3*%
X119700000Y-125240000D03*
%TO.P,U1,7,IO5*%
%TO.N,/KEY_R4*%
X122240000Y-125240000D03*
%TO.P,U1,8,IO6*%
%TO.N,/KEY_C1*%
X124780000Y-125240000D03*
%TO.P,U1,9,IO7*%
%TO.N,/KEY_C2*%
X127320000Y-125240000D03*
%TO.P,U1,10,5V*%
%TO.N,/+5V*%
X107000000Y-110000000D03*
%TO.P,U1,11,GND*%
%TO.N,/GND*%
X109540000Y-110000000D03*
%TO.P,U1,12,3V3*%
%TO.N,/+3V3*%
X112080000Y-110000000D03*
%TO.P,U1,13,IO13*%
%TO.N,/KEY_C3*%
X114620000Y-110000000D03*
%TO.P,U1,14,IO12*%
%TO.N,/KEY_C4*%
X117160000Y-110000000D03*
%TO.P,U1,15,IO11*%
%TO.N,/POT_HI*%
X119700000Y-110000000D03*
%TO.P,U1,16,IO10*%
%TO.N,/POT_WIPER*%
X122240000Y-110000000D03*
%TO.P,U1,17,IO9*%
%TO.N,/I2C_SDA*%
X124780000Y-110000000D03*
%TO.P,U1,18,IO8*%
%TO.N,/I2C_SCL*%
X127320000Y-110000000D03*
%TD*%
D13*
%TO.P,U3,1,VCC*%
%TO.N,/+3V3*%
X139500000Y-118000000D03*
D14*
%TO.P,U3,2,GND*%
%TO.N,/GND*%
X139500000Y-120540000D03*
%TO.P,U3,3,SCL*%
%TO.N,/I2C_SCL*%
X139500000Y-123080000D03*
%TO.P,U3,4,SDA*%
%TO.N,/I2C_SDA*%
X139500000Y-125620000D03*
%TD*%
D15*
%TO.P,U4,1,R1*%
%TO.N,/KEY_R1*%
X138100000Y-163200000D03*
%TO.P,U4,2,R2*%
%TO.N,/KEY_R2*%
X140640000Y-163200000D03*
%TO.P,U4,3,R3*%
%TO.N,/KEY_R3*%
X143180000Y-163200000D03*
%TO.P,U4,4,R4*%
%TO.N,/KEY_R4*%
X145720000Y-163200000D03*
%TO.P,U4,5,C1*%
%TO.N,/KEY_C1*%
X148260000Y-163200000D03*
%TO.P,U4,6,C2*%
%TO.N,/KEY_C2*%
X150800000Y-163200000D03*
%TO.P,U4,7,C3*%
%TO.N,/KEY_C3*%
X153340000Y-163200000D03*
%TO.P,U4,8,C4*%
%TO.N,/KEY_C4*%
X155880000Y-163200000D03*
%TD*%
%TO.N,/I2S_DIN*%
D16*
X107000000Y-134000000D02*
X113660000Y-140660000D01*
X107000000Y-125240000D02*
X107000000Y-134000000D01*
X113660000Y-140660000D02*
X113660000Y-141500000D01*
%TO.N,/I2S_BCLK*%
X116200000Y-140660000D02*
X116200000Y-141500000D01*
X109540000Y-134000000D02*
X116200000Y-140660000D01*
X109540000Y-125240000D02*
X109540000Y-134000000D01*
%TO.N,/I2S_LRC*%
X112080000Y-134000000D02*
X118740000Y-140660000D01*
X112080000Y-125240000D02*
X112080000Y-134000000D01*
X118740000Y-140660000D02*
X118740000Y-141500000D01*
%TO.N,/KEY_R1*%
X114620000Y-125240000D02*
X114620000Y-133000000D01*
X114620000Y-133000000D02*
X138100000Y-156480000D01*
X138100000Y-156480000D02*
X138100000Y-163200000D01*
%TO.N,/KEY_R2*%
X140640000Y-156480000D02*
X140640000Y-163200000D01*
X117160000Y-133000000D02*
X140640000Y-156480000D01*
X117160000Y-125240000D02*
X117160000Y-133000000D01*
%TO.N,/KEY_R3*%
X119700000Y-133000000D02*
X143180000Y-156480000D01*
X119700000Y-125240000D02*
X119700000Y-133000000D01*
X143180000Y-156480000D02*
X143180000Y-163200000D01*
%TO.N,/KEY_R4*%
X122240000Y-133000000D02*
X145720000Y-156480000D01*
X145720000Y-156480000D02*
X145720000Y-163200000D01*
X122240000Y-125240000D02*
X122240000Y-133000000D01*
%TO.N,/KEY_C1*%
X124780000Y-125240000D02*
X124780000Y-133000000D01*
X124780000Y-133000000D02*
X148260000Y-156480000D01*
X148260000Y-156480000D02*
X148260000Y-163200000D01*
%TO.N,/KEY_C2*%
X127320000Y-125240000D02*
X127320000Y-133000000D01*
X150800000Y-156480000D02*
X150800000Y-163200000D01*
X127320000Y-133000000D02*
X150800000Y-156480000D01*
%TO.N,/+5V*%
D17*
X103500000Y-120500000D02*
X103500000Y-141500000D01*
X107000000Y-117000000D02*
X103500000Y-120500000D01*
X107000000Y-110000000D02*
X107000000Y-117000000D01*
%TO.N,/GND*%
D16*
X139500000Y-120540000D02*
X144000000Y-120540000D01*
%TO.N,/+3V3*%
D17*
X139500000Y-103500000D02*
X139500000Y-118000000D01*
X112080000Y-110000000D02*
X112080000Y-103500000D01*
X112080000Y-103500000D02*
X139500000Y-103500000D01*
%TO.N,/KEY_C3*%
D16*
X129200000Y-118600000D02*
X129200000Y-133000000D01*
X114620000Y-110000000D02*
X114620000Y-118600000D01*
X153340000Y-157140000D02*
X153340000Y-163200000D01*
X129200000Y-133000000D02*
X153340000Y-157140000D01*
X114620000Y-118600000D02*
X129200000Y-118600000D01*
%TO.N,/KEY_C4*%
X130700000Y-117100000D02*
X130700000Y-132500000D01*
X155880000Y-157680000D02*
X155880000Y-163200000D01*
X130700000Y-132500000D02*
X155880000Y-157680000D01*
X117160000Y-110000000D02*
X117160000Y-117100000D01*
X117160000Y-117100000D02*
X130700000Y-117100000D01*
%TO.N,/POT_HI*%
X184540000Y-135540000D02*
X193200000Y-135540000D01*
X178000000Y-129000000D02*
X184540000Y-135540000D01*
X132200000Y-115600000D02*
X132200000Y-129000000D01*
X132200000Y-129000000D02*
X178000000Y-129000000D01*
X119700000Y-115600000D02*
X132200000Y-115600000D01*
X119700000Y-110000000D02*
X119700000Y-115600000D01*
%TO.N,/POT_WIPER*%
X122240000Y-110000000D02*
X122240000Y-114100000D01*
X179500000Y-127500000D02*
X185000000Y-133000000D01*
X185000000Y-133000000D02*
X193200000Y-133000000D01*
X133700000Y-114100000D02*
X133700000Y-127500000D01*
X133700000Y-127500000D02*
X179500000Y-127500000D01*
X122240000Y-114100000D02*
X133700000Y-114100000D01*
%TO.N,/I2C_SDA*%
X124780000Y-112600000D02*
X135200000Y-112600000D01*
X135200000Y-112600000D02*
X135200000Y-125620000D01*
X135200000Y-125620000D02*
X139500000Y-125620000D01*
X124780000Y-110000000D02*
X124780000Y-112600000D01*
%TO.N,/I2C_SCL*%
X136700000Y-110000000D02*
X136700000Y-123080000D01*
X136700000Y-123080000D02*
X139500000Y-123080000D01*
X127320000Y-110000000D02*
X136700000Y-110000000D01*
%TD*%
%TA.AperFunction,Conductor*%
%TO.N,/GND*%
G36*
X192004885Y-100500740D02*
G01*
X192333247Y-100516871D01*
X192352676Y-100518784D01*
X192673056Y-100566308D01*
X192692194Y-100570115D01*
X193006380Y-100648814D01*
X193025039Y-100654474D01*
X193330001Y-100763592D01*
X193348032Y-100771061D01*
X193479829Y-100833396D01*
X193640824Y-100909541D01*
X193658031Y-100918738D01*
X193935833Y-101085246D01*
X193952071Y-101096096D01*
X194212206Y-101289026D01*
X194227294Y-101301407D01*
X194467291Y-101518928D01*
X194481071Y-101532708D01*
X194698590Y-101772703D01*
X194710973Y-101787793D01*
X194903903Y-102047928D01*
X194914753Y-102064166D01*
X195078148Y-102336775D01*
X195081254Y-102341956D01*
X195090460Y-102359179D01*
X195228938Y-102651967D01*
X195236411Y-102670008D01*
X195343648Y-102969715D01*
X195345519Y-102974942D01*
X195351188Y-102993631D01*
X195429882Y-103307797D01*
X195433692Y-103326951D01*
X195481214Y-103647320D01*
X195483128Y-103666754D01*
X195499260Y-103995113D01*
X195499500Y-104004878D01*
X195499500Y-128961000D01*
X195479793Y-129047343D01*
X195424574Y-129116584D01*
X195344782Y-129155011D01*
X195300500Y-129160000D01*
X193450000Y-129160000D01*
X193450000Y-130261000D01*
X193430293Y-130347343D01*
X193375074Y-130416584D01*
X193352376Y-130432243D01*
X193196978Y-130524238D01*
X193180293Y-130597343D01*
X193125074Y-130666584D01*
X193045282Y-130705011D01*
X193001000Y-130710000D01*
X190450000Y-130710000D01*
X190450000Y-131307822D01*
X190456401Y-131367372D01*
X190456403Y-131367381D01*
X190506646Y-131502087D01*
X190506647Y-131502090D01*
X190525871Y-131527770D01*
X190561838Y-131608702D01*
X190559128Y-131697224D01*
X190524441Y-131768169D01*
X190425463Y-131897159D01*
X190423603Y-131901652D01*
X190419666Y-131907199D01*
X190418942Y-131908455D01*
X190418824Y-131908387D01*
X190372354Y-131973882D01*
X190294842Y-132016722D01*
X190239750Y-132024500D01*
X185486493Y-132024500D01*
X185400150Y-132004793D01*
X185345779Y-131966214D01*
X182991742Y-129612177D01*
X190450000Y-129612177D01*
X190450000Y-130210000D01*
X192946511Y-130210000D01*
X192950000Y-130207934D01*
X192950000Y-129160000D01*
X190902177Y-129160000D01*
X190842627Y-129166401D01*
X190842618Y-129166403D01*
X190707912Y-129216646D01*
X190707909Y-129216647D01*
X190592810Y-129302810D01*
X190506647Y-129417909D01*
X190506646Y-129417912D01*
X190456403Y-129552618D01*
X190456401Y-129552627D01*
X190450000Y-129612177D01*
X182991742Y-129612177D01*
X180121848Y-126742283D01*
X180121845Y-126742280D01*
X180048694Y-126693402D01*
X179962075Y-126635524D01*
X179962071Y-126635522D01*
X179910073Y-126613983D01*
X179910073Y-126613982D01*
X179784546Y-126561988D01*
X179784538Y-126561985D01*
X179596082Y-126524500D01*
X179596078Y-126524500D01*
X141754039Y-126524500D01*
X141667696Y-126504793D01*
X141598455Y-126449574D01*
X141560028Y-126369782D01*
X141560028Y-126281218D01*
X141576727Y-126235159D01*
X141578655Y-126231373D01*
X141586904Y-126215185D01*
X141662321Y-125983076D01*
X141700500Y-125742027D01*
X141700500Y-125497973D01*
X141662321Y-125256924D01*
X141586904Y-125024815D01*
X141476106Y-124807361D01*
X141332655Y-124609917D01*
X141213450Y-124490712D01*
X141166333Y-124415726D01*
X141156417Y-124327720D01*
X141185667Y-124244126D01*
X141213448Y-124209289D01*
X141332655Y-124090083D01*
X141476106Y-123892639D01*
X141586904Y-123675185D01*
X141662321Y-123443076D01*
X141700500Y-123202027D01*
X141700500Y-122957973D01*
X141662321Y-122716924D01*
X141586904Y-122484815D01*
X141476106Y-122267361D01*
X141332655Y-122069917D01*
X141332654Y-122069916D01*
X141332652Y-122069913D01*
X141160085Y-121897346D01*
X141154137Y-121892266D01*
X141155785Y-121890335D01*
X141106813Y-121834279D01*
X141083254Y-121748906D01*
X141099070Y-121661767D01*
X141141340Y-121599269D01*
X141255998Y-121484611D01*
X141390154Y-121299960D01*
X141493762Y-121096619D01*
X141493770Y-121096600D01*
X141564295Y-120879545D01*
X141564297Y-120879537D01*
X141578478Y-120790000D01*
X139933012Y-120790000D01*
X139965925Y-120732993D01*
X140000000Y-120605826D01*
X140000000Y-120474174D01*
X139965925Y-120347007D01*
X139933012Y-120290000D01*
X141578478Y-120290000D01*
X141578477Y-120289999D01*
X141564297Y-120200462D01*
X141564295Y-120200454D01*
X141493770Y-119983399D01*
X141493762Y-119983380D01*
X141390152Y-119780036D01*
X141366130Y-119746971D01*
X141331323Y-119665535D01*
X141335297Y-119577061D01*
X141377264Y-119499072D01*
X141405977Y-119472129D01*
X141528282Y-119378282D01*
X141599665Y-119285252D01*
X141624535Y-119252843D01*
X141624536Y-119252840D01*
X141637373Y-119221849D01*
X141685044Y-119106762D01*
X141700500Y-118989361D01*
X141700499Y-117010640D01*
X141685044Y-116893238D01*
X141685043Y-116893236D01*
X141685043Y-116893234D01*
X141624536Y-116747159D01*
X141624535Y-116747156D01*
X141570094Y-116676209D01*
X141528282Y-116621718D01*
X141486468Y-116589633D01*
X141402843Y-116525464D01*
X141402840Y-116525463D01*
X141256764Y-116464957D01*
X141256762Y-116464956D01*
X141139361Y-116449500D01*
X141139358Y-116449500D01*
X140799500Y-116449500D01*
X140713157Y-116429793D01*
X140643916Y-116374574D01*
X140605489Y-116294782D01*
X140600500Y-116250500D01*
X140600500Y-103878712D01*
X190149500Y-103878712D01*
X190149500Y-104121288D01*
X190181162Y-104361789D01*
X190243946Y-104596100D01*
X190336776Y-104820212D01*
X190384890Y-104903548D01*
X190458060Y-105030284D01*
X190605737Y-105222741D01*
X190777258Y-105394262D01*
X190969715Y-105541939D01*
X191048335Y-105587329D01*
X191179788Y-105663224D01*
X191403900Y-105756054D01*
X191638211Y-105818838D01*
X191878712Y-105850500D01*
X191878715Y-105850500D01*
X192121285Y-105850500D01*
X192121288Y-105850500D01*
X192361789Y-105818838D01*
X192596100Y-105756054D01*
X192820212Y-105663224D01*
X193030289Y-105541936D01*
X193222738Y-105394265D01*
X193394265Y-105222738D01*
X193541936Y-105030289D01*
X193663224Y-104820212D01*
X193756054Y-104596100D01*
X193818838Y-104361789D01*
X193850500Y-104121288D01*
X193850500Y-103878712D01*
X193818838Y-103638211D01*
X193756054Y-103403900D01*
X193663224Y-103179788D01*
X193587329Y-103048335D01*
X193541939Y-102969715D01*
X193394262Y-102777258D01*
X193222741Y-102605737D01*
X193030284Y-102458060D01*
X192903548Y-102384890D01*
X192820212Y-102336776D01*
X192596100Y-102243946D01*
X192596098Y-102243945D01*
X192596097Y-102243945D01*
X192361801Y-102181165D01*
X192361795Y-102181163D01*
X192361789Y-102181162D01*
X192121288Y-102149500D01*
X191878712Y-102149500D01*
X191638211Y-102181162D01*
X191638198Y-102181165D01*
X191403902Y-102243945D01*
X191179792Y-102336774D01*
X191179790Y-102336775D01*
X190969715Y-102458060D01*
X190777258Y-102605737D01*
X190605737Y-102777258D01*
X190458060Y-102969715D01*
X190336775Y-103179790D01*
X190336774Y-103179792D01*
X190243945Y-103403902D01*
X190241774Y-103412007D01*
X190181162Y-103638211D01*
X190149500Y-103878712D01*
X140600500Y-103878712D01*
X140600500Y-103413389D01*
X140573403Y-103242306D01*
X140573402Y-103242299D01*
X140519873Y-103077555D01*
X140441232Y-102923212D01*
X140441230Y-102923209D01*
X140441229Y-102923207D01*
X140339418Y-102783076D01*
X140339412Y-102783069D01*
X140216930Y-102660587D01*
X140216923Y-102660581D01*
X140076792Y-102558770D01*
X140076790Y-102558769D01*
X139922444Y-102480126D01*
X139922441Y-102480125D01*
X139757705Y-102426599D01*
X139757693Y-102426596D01*
X139586611Y-102399500D01*
X112166611Y-102399500D01*
X111993389Y-102399500D01*
X111822306Y-102426596D01*
X111822294Y-102426599D01*
X111657558Y-102480125D01*
X111657555Y-102480126D01*
X111503209Y-102558769D01*
X111503207Y-102558770D01*
X111363076Y-102660581D01*
X111363069Y-102660587D01*
X111240587Y-102783069D01*
X111240581Y-102783076D01*
X111138770Y-102923207D01*
X111138769Y-102923209D01*
X111060126Y-103077555D01*
X111060125Y-103077558D01*
X111006599Y-103242294D01*
X111006596Y-103242306D01*
X110979500Y-103413389D01*
X110979500Y-108175333D01*
X110959793Y-108261676D01*
X110921214Y-108316047D01*
X110897346Y-108339914D01*
X110892266Y-108345863D01*
X110890343Y-108344221D01*
X110834216Y-108393220D01*
X110748835Y-108416748D01*
X110661701Y-108400901D01*
X110599270Y-108358659D01*
X110484615Y-108244004D01*
X110299960Y-108109845D01*
X110096619Y-108006237D01*
X110096600Y-108006229D01*
X109879546Y-107935704D01*
X109879541Y-107935703D01*
X109790000Y-107921521D01*
X109790000Y-109566988D01*
X109732993Y-109534075D01*
X109605826Y-109500000D01*
X109474174Y-109500000D01*
X109347007Y-109534075D01*
X109290000Y-109566988D01*
X109290000Y-107921521D01*
X109200458Y-107935703D01*
X109200453Y-107935704D01*
X108983399Y-108006229D01*
X108983380Y-108006237D01*
X108780039Y-108109845D01*
X108595388Y-108244001D01*
X108480729Y-108358660D01*
X108405740Y-108405778D01*
X108317733Y-108415694D01*
X108234140Y-108386443D01*
X108189303Y-108344522D01*
X108187734Y-108345863D01*
X108182653Y-108339914D01*
X108010086Y-108167347D01*
X107970538Y-108138614D01*
X107812639Y-108023894D01*
X107777969Y-108006229D01*
X107595190Y-107913098D01*
X107595183Y-107913095D01*
X107363080Y-107837680D01*
X107363069Y-107837677D01*
X107158397Y-107805260D01*
X107122027Y-107799500D01*
X106877973Y-107799500D01*
X106846371Y-107804505D01*
X106636930Y-107837677D01*
X106636919Y-107837680D01*
X106404816Y-107913095D01*
X106404809Y-107913098D01*
X106187364Y-108023892D01*
X105989913Y-108167347D01*
X105817347Y-108339913D01*
X105673892Y-108537364D01*
X105563098Y-108754809D01*
X105563095Y-108754816D01*
X105487680Y-108986919D01*
X105487677Y-108986930D01*
X105449500Y-109227974D01*
X105449500Y-110772025D01*
X105487677Y-111013069D01*
X105487680Y-111013080D01*
X105563095Y-111245183D01*
X105563098Y-111245190D01*
X105608938Y-111335156D01*
X105673894Y-111462639D01*
X105730000Y-111539862D01*
X105817340Y-111660077D01*
X105817345Y-111660083D01*
X105841213Y-111683951D01*
X105888332Y-111758937D01*
X105899500Y-111824666D01*
X105899500Y-116461730D01*
X105879793Y-116548073D01*
X105841214Y-116602444D01*
X102783072Y-119660586D01*
X102721826Y-119721831D01*
X102660581Y-119783076D01*
X102558770Y-119923207D01*
X102558769Y-119923209D01*
X102480126Y-120077555D01*
X102480125Y-120077558D01*
X102426599Y-120242294D01*
X102426596Y-120242306D01*
X102399500Y-120413389D01*
X102399500Y-139675333D01*
X102379793Y-139761676D01*
X102341214Y-139816047D01*
X102317347Y-139839913D01*
X102173892Y-140037364D01*
X102063098Y-140254809D01*
X102063095Y-140254816D01*
X101987680Y-140486919D01*
X101987677Y-140486930D01*
X101949500Y-140727974D01*
X101949500Y-142272025D01*
X101987677Y-142513069D01*
X101987680Y-142513080D01*
X102063095Y-142745183D01*
X102063098Y-142745190D01*
X102166685Y-142948492D01*
X102173894Y-142962639D01*
X102262289Y-143084305D01*
X102317347Y-143160086D01*
X102489913Y-143332652D01*
X102489916Y-143332654D01*
X102489917Y-143332655D01*
X102687361Y-143476106D01*
X102904815Y-143586904D01*
X103136924Y-143662321D01*
X103377973Y-143700500D01*
X103377974Y-143700500D01*
X103622026Y-143700500D01*
X103622027Y-143700500D01*
X103863076Y-143662321D01*
X104095185Y-143586904D01*
X104312639Y-143476106D01*
X104510083Y-143332655D01*
X104682655Y-143160083D01*
X104682656Y-143160080D01*
X104687734Y-143154137D01*
X104689675Y-143155794D01*
X104745633Y-143106859D01*
X104830994Y-143083259D01*
X104918142Y-143099032D01*
X104980729Y-143141340D01*
X105095384Y-143255995D01*
X105280039Y-143390154D01*
X105483380Y-143493762D01*
X105483399Y-143493770D01*
X105700454Y-143564295D01*
X105700462Y-143564297D01*
X105789999Y-143578477D01*
X105790000Y-143578477D01*
X105790000Y-141933012D01*
X105847007Y-141965925D01*
X105974174Y-142000000D01*
X106105826Y-142000000D01*
X106232993Y-141965925D01*
X106290000Y-141933012D01*
X106290000Y-143578477D01*
X106379537Y-143564297D01*
X106379545Y-143564295D01*
X106596600Y-143493770D01*
X106596619Y-143493762D01*
X106799960Y-143390154D01*
X106984611Y-143255998D01*
X107099269Y-143141340D01*
X107174258Y-143094221D01*
X107262264Y-143084305D01*
X107345858Y-143113555D01*
X107390699Y-143155474D01*
X107392266Y-143154137D01*
X107397346Y-143160085D01*
X107569913Y-143332652D01*
X107569916Y-143332654D01*
X107569917Y-143332655D01*
X107767361Y-143476106D01*
X107984815Y-143586904D01*
X108216924Y-143662321D01*
X108457973Y-143700500D01*
X108457974Y-143700500D01*
X108702026Y-143700500D01*
X108702027Y-143700500D01*
X108943076Y-143662321D01*
X109175185Y-143586904D01*
X109392639Y-143476106D01*
X109590083Y-143332655D01*
X109709287Y-143213450D01*
X109784274Y-143166333D01*
X109872280Y-143156417D01*
X109955874Y-143185667D01*
X109990710Y-143213448D01*
X110109917Y-143332655D01*
X110307361Y-143476106D01*
X110524815Y-143586904D01*
X110756924Y-143662321D01*
X110997973Y-143700500D01*
X110997974Y-143700500D01*
X111242026Y-143700500D01*
X111242027Y-143700500D01*
X111483076Y-143662321D01*
X111715185Y-143586904D01*
X111932639Y-143476106D01*
X112130083Y-143332655D01*
X112249287Y-143213450D01*
X112324274Y-143166333D01*
X112412280Y-143156417D01*
X112495874Y-143185667D01*
X112530710Y-143213448D01*
X112649917Y-143332655D01*
X112847361Y-143476106D01*
X113064815Y-143586904D01*
X113296924Y-143662321D01*
X113537973Y-143700500D01*
X113537974Y-143700500D01*
X113782026Y-143700500D01*
X113782027Y-143700500D01*
X114023076Y-143662321D01*
X114255185Y-143586904D01*
X114472639Y-143476106D01*
X114670083Y-143332655D01*
X114789287Y-143213450D01*
X114864274Y-143166333D01*
X114952280Y-143156417D01*
X115035874Y-143185667D01*
X115070710Y-143213448D01*
X115189917Y-143332655D01*
X115387361Y-143476106D01*
X115604815Y-143586904D01*
X115836924Y-143662321D01*
X116077973Y-143700500D01*
X116077974Y-143700500D01*
X116322026Y-143700500D01*
X116322027Y-143700500D01*
X116563076Y-143662321D01*
X116795185Y-143586904D01*
X117012639Y-143476106D01*
X117054229Y-143445889D01*
X117135663Y-143411082D01*
X117224137Y-143415055D01*
X117302126Y-143457022D01*
X117329073Y-143485739D01*
X117361717Y-143528281D01*
X117487156Y-143624535D01*
X117487159Y-143624536D01*
X117633238Y-143685044D01*
X117750639Y-143700500D01*
X119729360Y-143700499D01*
X119846762Y-143685044D01*
X119846764Y-143685043D01*
X119846765Y-143685043D01*
X119846765Y-143685042D01*
X119992841Y-143624536D01*
X119992841Y-143624535D01*
X119992843Y-143624535D01*
X120052866Y-143578477D01*
X120118282Y-143528282D01*
X120205164Y-143415055D01*
X120214535Y-143402843D01*
X120214536Y-143402840D01*
X120219791Y-143390154D01*
X120275044Y-143256762D01*
X120290500Y-143139361D01*
X120290499Y-140530491D01*
X120310206Y-140444149D01*
X120365424Y-140374908D01*
X120445217Y-140336481D01*
X120533781Y-140336481D01*
X120613573Y-140374907D01*
X120630213Y-140389778D01*
X137066214Y-156825779D01*
X137113333Y-156900767D01*
X137124500Y-156966493D01*
X137124500Y-160239750D01*
X137104793Y-160326093D01*
X137049574Y-160395334D01*
X137001658Y-160423600D01*
X136997162Y-160425462D01*
X136997155Y-160425466D01*
X136871719Y-160521716D01*
X136775464Y-160647156D01*
X136775463Y-160647159D01*
X136714957Y-160793235D01*
X136714956Y-160793237D01*
X136699500Y-160910641D01*
X136699501Y-165300500D01*
X136679794Y-165386843D01*
X136624576Y-165456084D01*
X136544783Y-165494511D01*
X136500501Y-165499500D01*
X104004879Y-165499500D01*
X103995115Y-165499260D01*
X103980734Y-165498553D01*
X103666754Y-165483128D01*
X103647320Y-165481214D01*
X103326951Y-165433692D01*
X103307797Y-165429882D01*
X102993631Y-165351188D01*
X102974948Y-165345520D01*
X102670008Y-165236411D01*
X102651967Y-165228938D01*
X102359179Y-165090460D01*
X102341961Y-165081256D01*
X102064166Y-164914753D01*
X102047928Y-164903903D01*
X101787793Y-164710973D01*
X101772703Y-164698590D01*
X101532708Y-164481071D01*
X101518928Y-164467291D01*
X101301407Y-164227294D01*
X101289026Y-164212206D01*
X101096096Y-163952071D01*
X101085246Y-163935833D01*
X100918738Y-163658031D01*
X100909539Y-163640820D01*
X100862770Y-163541936D01*
X100833396Y-163479829D01*
X100771061Y-163348032D01*
X100763592Y-163330001D01*
X100654474Y-163025039D01*
X100648814Y-163006380D01*
X100570115Y-162692194D01*
X100566307Y-162673048D01*
X100554892Y-162596097D01*
X100518784Y-162352676D01*
X100516871Y-162333244D01*
X100500740Y-162004885D01*
X100500500Y-161995121D01*
X100500500Y-161878712D01*
X102149500Y-161878712D01*
X102149500Y-162121288D01*
X102181162Y-162361789D01*
X102243946Y-162596100D01*
X102336776Y-162820212D01*
X102384890Y-162903548D01*
X102458060Y-163030284D01*
X102605737Y-163222741D01*
X102777258Y-163394262D01*
X102969715Y-163541939D01*
X103048335Y-163587329D01*
X103179788Y-163663224D01*
X103403900Y-163756054D01*
X103638211Y-163818838D01*
X103878712Y-163850500D01*
X103878715Y-163850500D01*
X104121285Y-163850500D01*
X104121288Y-163850500D01*
X104361789Y-163818838D01*
X104596100Y-163756054D01*
X104820212Y-163663224D01*
X105030289Y-163541936D01*
X105222738Y-163394265D01*
X105394265Y-163222738D01*
X105541936Y-163030289D01*
X105663224Y-162820212D01*
X105756054Y-162596100D01*
X105818838Y-162361789D01*
X105850500Y-162121288D01*
X105850500Y-161878712D01*
X105818838Y-161638211D01*
X105756054Y-161403900D01*
X105663224Y-161179788D01*
X105587329Y-161048335D01*
X105541939Y-160969715D01*
X105394262Y-160777258D01*
X105222741Y-160605737D01*
X105030284Y-160458060D01*
X104903548Y-160384890D01*
X104820212Y-160336776D01*
X104596100Y-160243946D01*
X104596098Y-160243945D01*
X104596097Y-160243945D01*
X104361801Y-160181165D01*
X104361795Y-160181163D01*
X104361789Y-160181162D01*
X104121288Y-160149500D01*
X103878712Y-160149500D01*
X103638211Y-160181162D01*
X103638198Y-160181165D01*
X103403902Y-160243945D01*
X103179792Y-160336774D01*
X103179790Y-160336775D01*
X102969715Y-160458060D01*
X102777258Y-160605737D01*
X102605737Y-160777258D01*
X102458060Y-160969715D01*
X102346942Y-161162178D01*
X102336776Y-161179788D01*
X102243946Y-161403900D01*
X102181162Y-161638211D01*
X102149500Y-161878712D01*
X100500500Y-161878712D01*
X100500500Y-104004878D01*
X100500740Y-103995114D01*
X100506458Y-103878712D01*
X102149500Y-103878712D01*
X102149500Y-104121288D01*
X102181162Y-104361789D01*
X102243946Y-104596100D01*
X102336776Y-104820212D01*
X102384890Y-104903548D01*
X102458060Y-105030284D01*
X102605737Y-105222741D01*
X102777258Y-105394262D01*
X102969715Y-105541939D01*
X103048335Y-105587329D01*
X103179788Y-105663224D01*
X103403900Y-105756054D01*
X103638211Y-105818838D01*
X103878712Y-105850500D01*
X103878715Y-105850500D01*
X104121285Y-105850500D01*
X104121288Y-105850500D01*
X104361789Y-105818838D01*
X104596100Y-105756054D01*
X104820212Y-105663224D01*
X105030289Y-105541936D01*
X105222738Y-105394265D01*
X105394265Y-105222738D01*
X105541936Y-105030289D01*
X105663224Y-104820212D01*
X105756054Y-104596100D01*
X105818838Y-104361789D01*
X105850500Y-104121288D01*
X105850500Y-103878712D01*
X105818838Y-103638211D01*
X105756054Y-103403900D01*
X105663224Y-103179788D01*
X105587329Y-103048335D01*
X105541939Y-102969715D01*
X105394262Y-102777258D01*
X105222741Y-102605737D01*
X105030284Y-102458060D01*
X104903548Y-102384890D01*
X104820212Y-102336776D01*
X104596100Y-102243946D01*
X104596098Y-102243945D01*
X104596097Y-102243945D01*
X104361801Y-102181165D01*
X104361795Y-102181163D01*
X104361789Y-102181162D01*
X104121288Y-102149500D01*
X103878712Y-102149500D01*
X103638211Y-102181162D01*
X103638198Y-102181165D01*
X103403902Y-102243945D01*
X103179792Y-102336774D01*
X103179790Y-102336775D01*
X102969715Y-102458060D01*
X102777258Y-102605737D01*
X102605737Y-102777258D01*
X102458060Y-102969715D01*
X102336775Y-103179790D01*
X102336774Y-103179792D01*
X102243945Y-103403902D01*
X102241774Y-103412007D01*
X102181162Y-103638211D01*
X102149500Y-103878712D01*
X100506458Y-103878712D01*
X100507258Y-103862434D01*
X100516871Y-103666755D01*
X100518785Y-103647320D01*
X100520138Y-103638198D01*
X100566309Y-103326939D01*
X100570114Y-103307808D01*
X100648816Y-102993614D01*
X100654472Y-102974966D01*
X100763594Y-102669991D01*
X100771061Y-102651967D01*
X100815140Y-102558770D01*
X100909545Y-102359166D01*
X100918733Y-102341976D01*
X101085254Y-102064153D01*
X101096087Y-102047940D01*
X101289031Y-101787786D01*
X101301398Y-101772715D01*
X101518937Y-101532698D01*
X101532698Y-101518937D01*
X101772715Y-101301398D01*
X101787786Y-101289031D01*
X102047940Y-101096087D01*
X102064153Y-101085254D01*
X102341976Y-100918733D01*
X102359166Y-100909545D01*
X102651970Y-100771059D01*
X102669991Y-100763594D01*
X102974966Y-100654472D01*
X102993614Y-100648816D01*
X103307808Y-100570114D01*
X103326939Y-100566309D01*
X103647325Y-100518784D01*
X103666750Y-100516871D01*
X103995115Y-100500740D01*
X104004879Y-100500500D01*
X104065892Y-100500500D01*
X191934108Y-100500500D01*
X191995121Y-100500500D01*
X192004885Y-100500740D01*
G37*
%TD.AperFunction*%
%TA.AperFunction,Conductor*%
G36*
X109790000Y-112078477D02*
G01*
X109879537Y-112064297D01*
X109879545Y-112064295D01*
X110096600Y-111993770D01*
X110096619Y-111993762D01*
X110299960Y-111890154D01*
X110484611Y-111755998D01*
X110599269Y-111641340D01*
X110674258Y-111594221D01*
X110762264Y-111584305D01*
X110845858Y-111613555D01*
X110890699Y-111655474D01*
X110892266Y-111654137D01*
X110897346Y-111660085D01*
X111069913Y-111832652D01*
X111069916Y-111832654D01*
X111069917Y-111832655D01*
X111267361Y-111976106D01*
X111484815Y-112086904D01*
X111716924Y-112162321D01*
X111957973Y-112200500D01*
X111957974Y-112200500D01*
X112202026Y-112200500D01*
X112202027Y-112200500D01*
X112443076Y-112162321D01*
X112675185Y-112086904D01*
X112892639Y-111976106D01*
X113090083Y-111832655D01*
X113209287Y-111713450D01*
X113284274Y-111666333D01*
X113372280Y-111656417D01*
X113455874Y-111685667D01*
X113490714Y-111713452D01*
X113586214Y-111808952D01*
X113633333Y-111883940D01*
X113644500Y-111949666D01*
X113644500Y-118696081D01*
X113681987Y-118884541D01*
X113681989Y-118884546D01*
X113755520Y-119062068D01*
X113755524Y-119062075D01*
X113862277Y-119221841D01*
X113862283Y-119221849D01*
X113998150Y-119357716D01*
X113998158Y-119357722D01*
X114157924Y-119464475D01*
X114157931Y-119464479D01*
X114241447Y-119499072D01*
X114335457Y-119538012D01*
X114382573Y-119547384D01*
X114523919Y-119575500D01*
X114523922Y-119575500D01*
X128025500Y-119575500D01*
X128111843Y-119595207D01*
X128181084Y-119650426D01*
X128219511Y-119730218D01*
X128224500Y-119774500D01*
X128224500Y-122985961D01*
X128204793Y-123072304D01*
X128149574Y-123141545D01*
X128069782Y-123179972D01*
X127981218Y-123179972D01*
X127935159Y-123163273D01*
X127915187Y-123153097D01*
X127915183Y-123153095D01*
X127683080Y-123077680D01*
X127683069Y-123077677D01*
X127478397Y-123045260D01*
X127442027Y-123039500D01*
X127197973Y-123039500D01*
X127166371Y-123044505D01*
X126956930Y-123077677D01*
X126956919Y-123077680D01*
X126724816Y-123153095D01*
X126724809Y-123153098D01*
X126507364Y-123263892D01*
X126309913Y-123407347D01*
X126190714Y-123526547D01*
X126115726Y-123573666D01*
X126027719Y-123583582D01*
X125944126Y-123554331D01*
X125909286Y-123526547D01*
X125790086Y-123407347D01*
X125757421Y-123383615D01*
X125592639Y-123263894D01*
X125471214Y-123202025D01*
X125375190Y-123153098D01*
X125375183Y-123153095D01*
X125143080Y-123077680D01*
X125143069Y-123077677D01*
X124938397Y-123045260D01*
X124902027Y-123039500D01*
X124657973Y-123039500D01*
X124626371Y-123044505D01*
X124416930Y-123077677D01*
X124416919Y-123077680D01*
X124184816Y-123153095D01*
X124184809Y-123153098D01*
X123967364Y-123263892D01*
X123769913Y-123407347D01*
X123650714Y-123526547D01*
X123575726Y-123573666D01*
X123487719Y-123583582D01*
X123404126Y-123554331D01*
X123369286Y-123526547D01*
X123250086Y-123407347D01*
X123217421Y-123383615D01*
X123052639Y-123263894D01*
X122931214Y-123202025D01*
X122835190Y-123153098D01*
X122835183Y-123153095D01*
X122603080Y-123077680D01*
X122603069Y-123077677D01*
X122398397Y-123045260D01*
X122362027Y-123039500D01*
X122117973Y-123039500D01*
X122086371Y-123044505D01*
X121876930Y-123077677D01*
X121876919Y-123077680D01*
X121644816Y-123153095D01*
X121644809Y-123153098D01*
X121427364Y-123263892D01*
X121229913Y-123407347D01*
X121110714Y-123526547D01*
X121035726Y-123573666D01*
X120947719Y-123583582D01*
X120864126Y-123554331D01*
X120829286Y-123526547D01*
X120710086Y-123407347D01*
X120677421Y-123383615D01*
X120512639Y-123263894D01*
X120391214Y-123202025D01*
X120295190Y-123153098D01*
X120295183Y-123153095D01*
X120063080Y-123077680D01*
X120063069Y-123077677D01*
X119858397Y-123045260D01*
X119822027Y-123039500D01*
X119577973Y-123039500D01*
X119546371Y-123044505D01*
X119336930Y-123077677D01*
X119336919Y-123077680D01*
X119104816Y-123153095D01*
X119104809Y-123153098D01*
X118887364Y-123263892D01*
X118689913Y-123407347D01*
X118570714Y-123526547D01*
X118495726Y-123573666D01*
X118407719Y-123583582D01*
X118324126Y-123554331D01*
X118289286Y-123526547D01*
X118170086Y-123407347D01*
X118137421Y-123383615D01*
X117972639Y-123263894D01*
X117851214Y-123202025D01*
X117755190Y-123153098D01*
X117755183Y-123153095D01*
X117523080Y-123077680D01*
X117523069Y-123077677D01*
X117318397Y-123045260D01*
X117282027Y-123039500D01*
X117037973Y-123039500D01*
X117006371Y-123044505D01*
X116796930Y-123077677D01*
X116796919Y-123077680D01*
X116564816Y-123153095D01*
X116564809Y-123153098D01*
X116347364Y-123263892D01*
X116149913Y-123407347D01*
X116030714Y-123526547D01*
X115955726Y-123573666D01*
X115867719Y-123583582D01*
X115784126Y-123554331D01*
X115749286Y-123526547D01*
X115630086Y-123407347D01*
X115597421Y-123383615D01*
X115432639Y-123263894D01*
X115311214Y-123202025D01*
X115215190Y-123153098D01*
X115215183Y-123153095D01*
X114983080Y-123077680D01*
X114983069Y-123077677D01*
X114778397Y-123045260D01*
X114742027Y-123039500D01*
X114497973Y-123039500D01*
X114466371Y-123044505D01*
X114256930Y-123077677D01*
X114256919Y-123077680D01*
X114024816Y-123153095D01*
X114024809Y-123153098D01*
X113807364Y-123263892D01*
X113609913Y-123407347D01*
X113490714Y-123526547D01*
X113415726Y-123573666D01*
X113327719Y-123583582D01*
X113244126Y-123554331D01*
X113209286Y-123526547D01*
X113090086Y-123407347D01*
X113057421Y-123383615D01*
X112892639Y-123263894D01*
X112771214Y-123202025D01*
X112675190Y-123153098D01*
X112675183Y-123153095D01*
X112443080Y-123077680D01*
X112443069Y-123077677D01*
X112238397Y-123045260D01*
X112202027Y-123039500D01*
X111957973Y-123039500D01*
X111926371Y-123044505D01*
X111716930Y-123077677D01*
X111716919Y-123077680D01*
X111484816Y-123153095D01*
X111484809Y-123153098D01*
X111267364Y-123263892D01*
X111069913Y-123407347D01*
X110950714Y-123526547D01*
X110875726Y-123573666D01*
X110787719Y-123583582D01*
X110704126Y-123554331D01*
X110669286Y-123526547D01*
X110550086Y-123407347D01*
X110517421Y-123383615D01*
X110352639Y-123263894D01*
X110231214Y-123202025D01*
X110135190Y-123153098D01*
X110135183Y-123153095D01*
X109903080Y-123077680D01*
X109903069Y-123077677D01*
X109698397Y-123045260D01*
X109662027Y-123039500D01*
X109417973Y-123039500D01*
X109386371Y-123044505D01*
X109176930Y-123077677D01*
X109176919Y-123077680D01*
X108944816Y-123153095D01*
X108944809Y-123153098D01*
X108727364Y-123263892D01*
X108727361Y-123263893D01*
X108727361Y-123263894D01*
X108701096Y-123282977D01*
X108685771Y-123294111D01*
X108604334Y-123328918D01*
X108515860Y-123324944D01*
X108437872Y-123282977D01*
X108410928Y-123254263D01*
X108378282Y-123211718D01*
X108336910Y-123179972D01*
X108252843Y-123115464D01*
X108252840Y-123115463D01*
X108106764Y-123054957D01*
X108106762Y-123054956D01*
X107989361Y-123039500D01*
X107989358Y-123039500D01*
X106010642Y-123039500D01*
X105893234Y-123054956D01*
X105893234Y-123054957D01*
X105747159Y-123115463D01*
X105747156Y-123115464D01*
X105621718Y-123211718D01*
X105525464Y-123337156D01*
X105525463Y-123337159D01*
X105464957Y-123483235D01*
X105464956Y-123483237D01*
X105449500Y-123600641D01*
X105449500Y-126879357D01*
X105464956Y-126996765D01*
X105525463Y-127142840D01*
X105525464Y-127142843D01*
X105589633Y-127226468D01*
X105621718Y-127268282D01*
X105676209Y-127310094D01*
X105747156Y-127364535D01*
X105747161Y-127364537D01*
X105780957Y-127378535D01*
X105893238Y-127425044D01*
X105893240Y-127425044D01*
X105901653Y-127428529D01*
X105973882Y-127479777D01*
X106016722Y-127557290D01*
X106024500Y-127612381D01*
X106024500Y-134096082D01*
X106061985Y-134284538D01*
X106061986Y-134284541D01*
X106061987Y-134284543D01*
X106075805Y-134317903D01*
X106110018Y-134400500D01*
X106135520Y-134462068D01*
X106135522Y-134462071D01*
X106135523Y-134462073D01*
X106198766Y-134556722D01*
X106229011Y-134601986D01*
X106229012Y-134601989D01*
X106242275Y-134621838D01*
X106242280Y-134621845D01*
X106242283Y-134621848D01*
X110679150Y-139058715D01*
X110726269Y-139133703D01*
X110736185Y-139221710D01*
X110706934Y-139305303D01*
X110644310Y-139367927D01*
X110599932Y-139388689D01*
X110524813Y-139413096D01*
X110524809Y-139413098D01*
X110307364Y-139523892D01*
X110109913Y-139667347D01*
X109990714Y-139786547D01*
X109915726Y-139833666D01*
X109827719Y-139843582D01*
X109744126Y-139814331D01*
X109709286Y-139786547D01*
X109590086Y-139667347D01*
X109557421Y-139643615D01*
X109392639Y-139523894D01*
X109357969Y-139506229D01*
X109175190Y-139413098D01*
X109175183Y-139413095D01*
X108943080Y-139337680D01*
X108943069Y-139337677D01*
X108738397Y-139305260D01*
X108702027Y-139299500D01*
X108457973Y-139299500D01*
X108426371Y-139304505D01*
X108216930Y-139337677D01*
X108216919Y-139337680D01*
X107984816Y-139413095D01*
X107984809Y-139413098D01*
X107767364Y-139523892D01*
X107569913Y-139667347D01*
X107397346Y-139839914D01*
X107392266Y-139845863D01*
X107390343Y-139844221D01*
X107334216Y-139893220D01*
X107248835Y-139916748D01*
X107161701Y-139900901D01*
X107099270Y-139858659D01*
X106984615Y-139744004D01*
X106799960Y-139609845D01*
X106596619Y-139506237D01*
X106596600Y-139506229D01*
X106379546Y-139435704D01*
X106379541Y-139435703D01*
X106290000Y-139421521D01*
X106290000Y-141066988D01*
X106232993Y-141034075D01*
X106105826Y-141000000D01*
X105974174Y-141000000D01*
X105847007Y-141034075D01*
X105790000Y-141066988D01*
X105790000Y-139421521D01*
X105700458Y-139435703D01*
X105700453Y-139435704D01*
X105483399Y-139506229D01*
X105483380Y-139506237D01*
X105280039Y-139609845D01*
X105095388Y-139744001D01*
X104980729Y-139858660D01*
X104905740Y-139905778D01*
X104817733Y-139915694D01*
X104734140Y-139886443D01*
X104689303Y-139844522D01*
X104687734Y-139845863D01*
X104682653Y-139839914D01*
X104658786Y-139816047D01*
X104611667Y-139741059D01*
X104600500Y-139675333D01*
X104600500Y-121038270D01*
X104620207Y-120951927D01*
X104658786Y-120897556D01*
X107839412Y-117716930D01*
X107839418Y-117716923D01*
X107941231Y-117576789D01*
X107941232Y-117576788D01*
X108019873Y-117422446D01*
X108073402Y-117257701D01*
X108100500Y-117086611D01*
X108100500Y-116913390D01*
X108100500Y-111824666D01*
X108120207Y-111738323D01*
X108158785Y-111683952D01*
X108182655Y-111660083D01*
X108182657Y-111660079D01*
X108182660Y-111660077D01*
X108187734Y-111654137D01*
X108189675Y-111655794D01*
X108245633Y-111606859D01*
X108330994Y-111583259D01*
X108418142Y-111599032D01*
X108480729Y-111641340D01*
X108595384Y-111755995D01*
X108780039Y-111890154D01*
X108983380Y-111993762D01*
X108983399Y-111993770D01*
X109200454Y-112064295D01*
X109200462Y-112064297D01*
X109289999Y-112078477D01*
X109290000Y-112078477D01*
X109290000Y-110433012D01*
X109347007Y-110465925D01*
X109474174Y-110500000D01*
X109605826Y-110500000D01*
X109732993Y-110465925D01*
X109790000Y-110433012D01*
X109790000Y-112078477D01*
G37*
%TD.AperFunction*%
%TD*%
M02*
