M48
; DRILL file KiCad 10.0.6 date 2026-10-02T13:04:59
; FORMAT={-:-/ absolute / metric / decimal}
; #@! TF.CreationDate,2026-10-02T13:04:59-07:00
; #@! TF.GenerationSoftware,Kicad,Pcbnew,10.0.6
; #@! TF.FileFunction,Plated,1,2,PTH
FMAT,2
METRIC
; #@! TA.AperFunction,Plated,PTH,ComponentDrill
T1C1.000
%
G90
G05
T1
X103.5Y-141.5
X106.04Y-141.5
X107.0Y-110.0
X107.0Y-125.24
X108.58Y-141.5
X109.54Y-110.0
X109.54Y-125.24
X111.12Y-141.5
X112.08Y-110.0
X112.08Y-125.24
X113.66Y-141.5
X114.62Y-110.0
X114.62Y-125.24
X116.2Y-141.5
X117.16Y-110.0
X117.16Y-125.24
X118.74Y-141.5
X119.7Y-110.0
X119.7Y-125.24
X122.24Y-110.0
X122.24Y-125.24
X124.78Y-110.0
X124.78Y-125.24
X127.32Y-110.0
X127.32Y-125.24
X139.5Y-118.0
X139.5Y-120.54
X139.5Y-123.08
X139.5Y-125.62
M30
